# xmcd
#
# Track frame offsets:
# 182
# 32390
# 61332
# 79785
# 96257
# 118607
# 133232
# 149532
# 167507
# 183137
# 196107
# 211457
# 226982
# 244670
# 259132
# 276060
# 299807
# 322182
#
# Disc length: 4599 seconds
#
#
# Revision: 0
# Processed by: cddbd v1.5.2PL0 Copyright (c) Steve Scherf et al.
# Submitted via: Nero 7, 11, 10, 0 
#
DISCID=0d11f512
DTITLE=Dr. John - Such A Funky Night
DYEAR=1973
DGENRE=Blues
TTITLE0=Loop Garoo
TTITLE1=Walk On Guilded Splinters
TTITLE2=Danse Kalinda Ba Doom
TTITLE3=Stag-A-Lee
TTITLE4=Hard Judgement
TTITLE5=Travelling Mood
TTITLE6=Mother, Mother
TTITLE7=Put A Little Love In Your Heart
TTITLE8=Tipitina
TTITLE9=Mess Around
TTITLE10=Talking
TTITLE11=I've Been Hoodood
TTITLE12=Such A Night
TTITLE13=Right Place Wrong Time
TTITLE14=Let The Good Times Roll
TTITLE15=Wang Dang Doodle
TTITLE16=Mama Roux
TTITLE17=Qualified
EXTD=
EXTT0=Loop Garoo
EXTT1=Walk On Guilded Splinters
EXTT2=Danse Kalinda Ba Doom
EXTT3=Stag-A-Lee
EXTT4=Hard Judgement
EXTT5=Travelling Mood
EXTT6=Mother, Mother
EXTT7=Put A Little Love In Your Heart
EXTT8=Tipitina
EXTT9=Mess Around
EXTT10=Talking
EXTT11=I've Been Hoodood
EXTT12=Such A Night
EXTT13=Right Place Wrong Time
EXTT14=Let The Good Times Roll
EXTT15=Wang Dang Doodle
EXTT16=Mama Roux
EXTT17=Qualified
PLAYORDER=
